<?xml version="1.0" encoding="UTF-8"?><svg version="1.1" width="240px" height="240px" viewBox="0 0 240.0 240.0" xmlns="http://www.w3.org/2000/svg" xmlns:xlink="http://www.w3.org/1999/xlink"><defs><clipPath id="i0"><path d="M120,0 C186.27417,0 240,53.72583 240,120 C240,186.27417 186.27417,240 120,240 C53.72583,240 0,186.27417 0,120 C0,53.72583 53.72583,0 120,0 Z"></path></clipPath><clipPath id="i1"><path d="M110,0 C170.751322,0 220,49.2486775 220,110 C220,170.751322 170.751322,220 110,220 C49.2486775,220 0,170.751322 0,110 C0,49.2486775 49.2486775,0 110,0 Z M110,5 C52.0101013,5 5,52.0101013 5,110 C5,167.989899 52.0101013,215 110,215 C167.989899,215 215,167.989899 215,110 C215,52.0101013 167.989899,5 110,5 Z M78.4079999,136.5 C81.2202339,136.5 83.5,138.779766 83.5,141.592 L83.5,168.408 C83.5,171.220234 81.2202339,173.5 78.4079999,173.5 L51.5920001,173.5 C48.7797661,173.5 46.5,171.220234 46.5,168.408 L46.5,141.592 C46.5,138.779766 48.7797661,136.5 51.5920001,136.5 L78.4079999,136.5 Z M78.4079999,141.5 L51.5920001,141.5 C51.5411898,141.5 51.5,141.54119 51.5,141.592 L51.5,168.408 C51.5,168.45881 51.5411898,168.5 51.5920001,168.5 L78.4079999,168.5 C78.4588102,168.5 78.5,168.45881 78.5,168.408 L78.5,141.592 C78.5,141.54119 78.4588102,141.5 78.4079999,141.5 Z M95.0089776,161.000016 L143.252231,161.17326 C144.632934,161.178219 145.748195,162.301519 145.743254,163.682222 C145.738477,165.007697 144.703053,166.088541 143.398669,166.168501 L143.234276,166.173228 L94.9910224,165.999984 C93.6103194,165.995026 92.4950579,164.871725 92.4999997,163.491022 C92.504776,162.165548 93.5401999,161.084704 94.8445839,161.004743 L95.0089776,161.000016 Z M76.7739797,146.238468 C77.7045486,147.175612 77.7399092,148.664609 76.8837997,149.643724 L76.7615323,149.77398 L61.9081383,164.523152 L53.2384677,155.914314 C52.2587258,154.941446 52.2531529,153.358544 53.2260203,152.378802 C54.1565891,151.441657 55.6452998,151.395813 56.630419,152.245007 L56.7615323,152.366354 L61.908,157.477 L73.2384677,146.22602 C74.2182097,145.253153 75.8011123,145.258726 76.7739797,146.238468 Z M172,152 C173.380712,152 174.5,153.119288 174.5,154.5 C174.5,155.825483 173.468464,156.910039 172.164376,156.994682 L172,157 L95,157 C93.6192881,157 92.5,155.880712 92.5,154.5 C92.5,153.174517 93.5315359,152.089961 94.8356243,152.005318 L95,152 L172,152 Z M172,143 C173.380712,143 174.5,144.119288 174.5,145.5 C174.5,146.825483 173.468464,147.910039 172.164376,147.994682 L172,148 L95,148 C93.6192881,148 92.5,146.880712 92.5,145.5 C92.5,144.174517 93.5315359,143.089961 94.8356243,143.005318 L95,143 L172,143 Z M78.4079999,91.5 C81.2202339,91.5 83.5,93.7797661 83.5,96.5920001 L83.5,123.408 C83.5,126.220234 81.2202339,128.5 78.4079999,128.5 L51.5920001,128.5 C48.7797661,128.5 46.5,126.220234 46.5,123.408 L46.5,96.5920001 C46.5,93.7797661 48.7797661,91.5 51.5920001,91.5 L78.4079999,91.5 Z M78.4079999,96.5 L51.5920001,96.5 C51.5411898,96.5 51.5,96.5411898 51.5,96.5920001 L51.5,123.408 C51.5,123.45881 51.5411898,123.5 51.5920001,123.5 L78.4079999,123.5 C78.4588102,123.5 78.5,123.45881 78.5,123.408 L78.5,96.5920001 C78.5,96.5411898 78.4588102,96.5 78.4079999,96.5 Z M95.0089776,116.000016 L143.252231,116.17326 C144.632934,116.178219 145.748195,117.301519 145.743254,118.682222 C145.738477,120.007697 144.703053,121.088541 143.398669,121.168501 L143.234276,121.173228 L94.9910224,120.999984 C93.6103194,120.995026 92.4950579,119.871725 92.4999997,118.491022 C92.504776,117.165548 93.5401999,116.084704 94.8445839,116.004743 L95.0089776,116.000016 Z M171,107 C172.380712,107 173.5,108.119288 173.5,109.5 C173.5,110.825483 172.468464,111.910039 171.164376,111.994682 L171,112 L95,112 C93.6192881,112 92.5,110.880712 92.5,109.5 C92.5,108.174517 93.5315359,107.089961 94.8356243,107.005318 L95,107 L171,107 Z M171,98 C172.380712,98 173.5,99.1192881 173.5,100.5 C173.5,101.825483 172.468464,102.910039 171.164376,102.994682 L171,103 L95,103 C93.6192881,103 92.5,101.880712 92.5,100.5 C92.5,99.1745166 93.5315359,98.0899613 94.8356243,98.0053177 L95,98 L171,98 Z M78.4079999,46.5 C81.2202339,46.5 83.5,48.7797661 83.5,51.5920001 L83.5,78.4079999 C83.5,81.2202339 81.2202339,83.5 78.4079999,83.5 L51.5920001,83.5 C48.7797661,83.5 46.5,81.2202339 46.5,78.4079999 L46.5,51.5920001 C46.5,48.7797661 48.7797661,46.5 51.5920001,46.5 L78.4079999,46.5 Z M78.4079999,51.5 L51.5920001,51.5 C51.5411898,51.5 51.5,51.5411898 51.5,51.5920001 L51.5,78.4079999 C51.5,78.4588102 51.5411898,78.5 51.5920001,78.5 L78.4079999,78.5 C78.4588102,78.5 78.5,78.4588102 78.5,78.4079999 L78.5,51.5920001 C78.5,51.5411898 78.4588102,51.5 78.4079999,51.5 Z M95.0089776,71.0000161 L143.252231,71.1732603 C144.632934,71.1782185 145.748195,72.3015188 145.743254,73.6822218 C145.738477,75.0076966 144.703053,76.0885406 143.398669,76.1685007 L143.234276,76.1732281 L94.9910224,75.9999839 C93.6103194,75.9950257 92.4950579,74.8717254 92.4999997,73.4910224 C92.504776,72.1655476 93.5401999,71.0847036 94.8445839,71.0047435 L95.0089776,71.0000161 Z M76.7739797,57.2384677 C77.7045486,58.1756122 77.7399092,59.6646088 76.8837997,60.6437241 L76.7615323,60.7739797 L61.9081383,75.5231519 L53.2384677,66.9143137 C52.2587258,65.9414463 52.2531529,64.3585437 53.2260203,63.3788017 C54.1565891,62.4416573 55.6452998,62.395813 56.630419,63.245007 L56.7615323,63.3663543 L61.908,68.477 L73.2384677,57.2260203 C74.2182097,56.2531529 75.8011123,56.2587258 76.7739797,57.2384677 Z M171,62 C172.380712,62 173.5,63.1192881 173.5,64.5 C173.5,65.8254834 172.468464,66.9100387 171.164376,66.9946823 L171,67 L95,67 C93.6192881,67 92.5,65.8807119 92.5,64.5 C92.5,63.1745166 93.5315359,62.0899613 94.8356243,62.0053177 L95,62 L171,62 Z M171,53 C172.380712,53 173.5,54.1192881 173.5,55.5 C173.5,56.8254834 172.468464,57.9100387 171.164376,57.9946823 L171,58 L95,58 C93.6192881,58 92.5,56.8807119 92.5,55.5 C92.5,54.1745166 93.5315359,53.0899613 94.8356243,53.0053177 L95,53 L171,53 Z"></path></clipPath></defs><g clip-path="url(#i0)"><polygon points="0,0 240,0 240,240 0,240 0,0" stroke="none" fill="#004F80"></polygon></g><g transform="translate(10.0 10.0)"><g clip-path="url(#i1)"><polygon points="0,0 220,0 220,220 0,220 0,0" stroke="none" fill="#66D3F7"></polygon></g></g></svg>
